<svg width="1440" height="360" viewBox="0 0 1440 360" fill="none" xmlns="http://www.w3.org/2000/svg">
<g clip-path="url(#clip0)">
<path d="M1178.25 359.7C1194.62 359.7 1231.25 318.017 1231.25 294.2C1231.25 270.382 1226.79 256.199 1210.75 256.2C1194.7 256.2 1163.31 265.239 1163.31 307.237C1163.31 349.234 1161.88 359.7 1178.25 359.7Z" fill="url(#paint0_linear)"/>
<path d="M1391.97 322.35C1400.54 298.155 1368.44 287.634 1355.08 267.918C1341.72 248.201 1320.77 256.343 1315.2 261.796C1309.63 267.249 1303.8 279.489 1314.45 295.203C1325.1 310.918 1381.29 352.485 1391.97 322.35Z" fill="url(#paint1_linear)"/>
<path d="M112.248 359.7C128.621 359.7 165.248 318.017 165.248 294.2C165.248 270.382 160.795 256.199 144.748 256.2C128.702 256.2 97.307 265.239 97.307 307.237C97.307 349.234 95.8754 359.7 112.248 359.7Z" fill="url(#paint2_linear)"/>
<path d="M425.926 343.261C440.106 351.448 492.667 333.663 504.576 313.037C516.484 292.41 519.719 277.901 505.822 269.878C491.926 261.854 460.217 253.985 439.218 290.356C418.219 326.727 411.747 335.075 425.926 343.261Z" fill="url(#paint3_linear)"/>
<path d="M833.248 359.7C849.621 359.7 886.248 318.017 886.248 294.2C886.248 270.382 881.795 256.199 865.748 256.2C849.702 256.2 818.307 265.239 818.307 307.237C818.307 349.234 816.875 359.7 833.248 359.7Z" fill="url(#paint4_linear)"/>
<path fill-rule="evenodd" clip-rule="evenodd" d="M72.7181 230.425C70.9267 228.657 68.5091 226.449 66.345 225.071C62.2703 222.476 54.0743 222 54.0743 222C54.0743 222 55.2102 223.258 56.8322 224.852C41.384 222.459 25 226.126 25 226.126C25 226.126 28.571 230.501 34.2473 236.124C32.7524 236.209 31.7499 236.334 31.7499 236.334C31.7499 236.334 36.3095 239.826 40.3988 241.896C45.2871 246.227 50.9954 250.676 57 254.126C74.2186 264.018 105.5 250.126 105.5 250.126C105.5 250.126 89.4014 240.059 72.7181 230.425Z" fill="white"/>
<path fill-rule="evenodd" clip-rule="evenodd" d="M433.718 232.425C431.927 230.657 429.509 228.449 427.345 227.071C423.27 224.476 415.074 224 415.074 224C415.074 224 416.21 225.258 417.832 226.852C402.384 224.459 386 228.126 386 228.126C386 228.126 389.571 232.501 395.247 238.124C393.752 238.209 392.75 238.334 392.75 238.334C392.75 238.334 397.309 241.826 401.399 243.896C406.287 248.227 411.995 252.676 418 256.126C435.219 266.018 466.5 252.126 466.5 252.126C466.5 252.126 450.401 242.059 433.718 232.425Z" fill="white"/>
<path fill-rule="evenodd" clip-rule="evenodd" d="M1153.72 230.425C1151.93 228.657 1149.51 226.449 1147.34 225.071C1143.27 222.476 1135.07 222 1135.07 222C1135.07 222 1136.21 223.258 1137.83 224.852C1122.38 222.459 1106 226.126 1106 226.126C1106 226.126 1109.57 230.501 1115.25 236.124C1113.75 236.209 1112.75 236.334 1112.75 236.334C1112.75 236.334 1117.31 239.826 1121.4 241.896C1126.29 246.227 1132 250.676 1138 254.126C1155.22 264.018 1186.5 250.126 1186.5 250.126C1186.5 250.126 1170.4 240.059 1153.72 230.425Z" fill="white"/>
<path fill-rule="evenodd" clip-rule="evenodd" d="M793.718 232.425C791.927 230.657 789.509 228.449 787.345 227.071C783.27 224.476 775.074 224 775.074 224C775.074 224 776.21 225.258 777.832 226.852C762.384 224.459 746 228.126 746 228.126C746 228.126 749.571 232.501 755.247 238.124C753.752 238.209 752.75 238.334 752.75 238.334C752.75 238.334 757.309 241.826 761.399 243.896C766.287 248.227 771.995 252.676 778 256.126C795.219 266.018 826.5 252.126 826.5 252.126C826.5 252.126 810.401 242.059 793.718 232.425Z" fill="white"/>
<path d="M275.975 356.496C296.645 341.276 275.975 314.56 275.975 290.743C275.975 266.925 254.068 261.915 246.398 263.305C238.729 264.695 227.033 271.555 227.033 290.537C227.033 309.52 250.231 375.452 275.975 356.496Z" fill="url(#paint5_linear)"/>
<path d="M636.975 356.496C657.645 341.276 636.975 314.56 636.975 290.743C636.975 266.925 615.068 261.915 607.398 263.305C599.729 264.695 588.033 271.555 588.033 290.537C588.033 309.52 611.231 375.452 636.975 356.496Z" fill="url(#paint6_linear)"/>
<path d="M996.975 356.496C1017.65 341.276 996.975 314.56 996.975 290.743C996.975 266.925 975.068 261.915 967.398 263.305C959.729 264.695 948.033 271.555 948.033 290.537C948.033 309.52 971.231 375.452 996.975 356.496Z" fill="url(#paint7_linear)"/>
<path d="M82 247C82 202.51 122.511 175 185 175C247.489 175 281 196.806 281 247C281 297.194 218.551 332 161 332C103.449 332 82 291.49 82 247Z" fill="url(#paint8_linear)"/>
<path d="M443 247C443 202.51 483.511 175 546 175C608.489 175 642 196.806 642 247C642 297.194 579.551 332 522 332C464.449 332 443 291.49 443 247Z" fill="url(#paint9_linear)"/>
<path d="M1163 247C1163 202.51 1203.51 175 1266 175C1328.49 175 1362 196.806 1362 247C1362 297.194 1299.55 332 1242 332C1184.45 332 1163 291.49 1163 247Z" fill="url(#paint10_linear)"/>
<path d="M803 247C803 202.51 843.511 175 906 175C968.489 175 1002 196.806 1002 247C1002 297.194 939.551 332 882 332C824.449 332 803 291.49 803 247Z" fill="url(#paint11_linear)"/>
<path d="M249.975 356.496C270.645 341.276 249.975 314.56 249.975 290.743C249.975 266.925 228.068 261.915 220.398 263.305C212.729 264.695 201.033 271.555 201.033 290.537C201.033 309.52 224.231 375.452 249.975 356.496Z" fill="url(#paint12_linear)"/>
<path d="M671.966 322.35C680.539 298.155 648.44 287.634 635.079 267.918C621.718 248.201 600.772 256.343 595.203 261.796C589.633 267.249 583.799 279.489 594.448 295.203C605.097 310.918 661.288 352.485 671.966 322.35Z" fill="url(#paint13_linear)"/>
<path d="M995.473 354.452C1011.5 334.401 984.619 313.945 978.455 290.939C972.29 267.934 949.833 268.764 942.785 272.092C935.736 275.419 926.214 285.072 931.127 303.408C936.04 321.744 975.512 379.426 995.473 354.452Z" fill="url(#paint14_linear)"/>
<path d="M97.2482 359.7C113.621 359.7 150.248 318.017 150.248 294.2C150.248 270.382 145.795 256.199 129.748 256.2C113.702 256.2 82.307 265.239 82.307 307.237C82.307 349.234 80.8754 359.7 97.2482 359.7Z" fill="url(#paint15_linear)"/>
<path d="M458.248 359.7C474.621 359.7 511.248 318.017 511.248 294.2C511.248 270.382 506.795 256.199 490.748 256.2C474.702 256.2 443.307 265.239 443.307 307.237C443.307 349.234 441.875 359.7 458.248 359.7Z" fill="url(#paint16_linear)"/>
<path d="M818.248 359.7C834.621 359.7 871.248 318.017 871.248 294.2C871.248 270.382 866.795 256.199 850.748 256.2C834.702 256.2 803.307 265.239 803.307 307.237C803.307 349.234 801.875 359.7 818.248 359.7Z" fill="url(#paint17_linear)"/>
<path fill-rule="evenodd" clip-rule="evenodd" d="M323.482 218.981L323.382 219.137C326.887 219.73 330 220.598 330 220.598C330 220.598 325.305 223.189 320.996 224.201C323.045 224.073 324.523 224.063 324.523 224.063C324.523 224.063 318.653 229.902 314.085 231.207C313.804 231.287 313.512 231.363 313.212 231.434C314.103 231.497 314.65 231.551 314.65 231.551C314.65 231.551 309.838 235.418 305.511 236.999C291.197 246.456 271.049 252.125 244.5 252.125C207.799 252.125 183.329 241.292 169.596 224.593C164.846 224.435 157.892 220.598 157.892 220.598C157.892 220.598 161.545 219.579 165.393 218.996C165.26 218.999 165.129 219 165 219C160.249 219 153 215 153 215C153 215 157.853 213.646 162.264 213.166C158.04 204.48 156 194.787 156 184.563C156 170.091 161.96 156.682 172.108 145.689C170.224 133.781 179.507 118.758 179.507 118.758C179.507 118.758 194.712 118.339 204.44 124.302C216.468 119.632 230.081 117 244.5 117C259.741 117 274.082 119.941 286.603 125.121C294.081 119.928 303.428 117.576 303.428 117.576C303.428 117.576 320.153 132.9 317.045 145.855C327.1 156.817 333 170.164 333 184.563C333 194.837 330.94 204.576 326.674 213.294C330.772 213.851 334.892 215 334.892 215C334.892 215 328.219 218.682 323.482 218.981Z" fill="url(#paint18_linear)"/>
<path d="M252 174.725C252 174.725 254.52 177.709 259 177.709C263.48 177.709 266 174.725 266 174.725" stroke="#757575" stroke-width="4" stroke-linecap="round"/>
<path d="M266 174.725C266 174.725 268.52 177.709 273 177.709C277.48 177.709 280 174.725 280 174.725" stroke="#757575" stroke-width="4" stroke-linecap="round"/>
<path d="M214.238 147.968C214.238 147.968 216.829 144.984 221.435 144.984C226.041 144.984 228.632 147.968 228.632 147.968" stroke="black" stroke-opacity="0.1" stroke-width="8" stroke-linecap="round"/>
<path d="M291 147.968C291 147.968 293.591 144.984 298.197 144.984C302.803 144.984 305.394 147.968 305.394 147.968" stroke="black" stroke-opacity="0.1" stroke-width="8" stroke-linecap="round"/>
<circle cx="226" cy="164.813" r="10" fill="black" fill-opacity="0.87"/>
<path d="M213.5 163C213.5 163 215.5 159.5 219.5 158C223.5 156.5 226 157 226 157" stroke="#212121" stroke-width="4" stroke-linecap="round"/>
<circle r="10" transform="matrix(-1 0 0 1 298 162.813)" fill="black" fill-opacity="0.87"/>
<path d="M310.5 161C310.5 161 308.5 157.5 304.5 156C300.5 154.5 298 155 298 155" stroke="#212121" stroke-width="4" stroke-linecap="round"/>
<path fill-rule="evenodd" clip-rule="evenodd" d="M684.482 220.981L684.382 221.137C687.887 221.73 691 222.598 691 222.598C691 222.598 686.305 225.189 681.996 226.201C684.045 226.073 685.523 226.063 685.523 226.063C685.523 226.063 679.653 231.902 675.085 233.207C674.804 233.287 674.512 233.363 674.212 233.434C675.103 233.497 675.65 233.551 675.65 233.551C675.65 233.551 670.838 237.418 666.511 238.999C652.197 248.456 632.049 254.125 605.5 254.125C568.799 254.125 544.329 243.292 530.596 226.593C525.846 226.435 518.892 222.598 518.892 222.598C518.892 222.598 522.545 221.579 526.393 220.996C526.26 220.999 526.129 221 526 221C521.249 221 514 217 514 217C514 217 518.853 215.646 523.264 215.166C519.04 206.48 517 196.787 517 186.563C517 172.091 522.96 158.682 533.108 147.689C531.224 135.781 540.507 120.758 540.507 120.758C540.507 120.758 555.712 120.339 565.44 126.302C577.468 121.632 591.081 119 605.5 119C620.741 119 635.082 121.941 647.603 127.121C655.081 121.928 664.428 119.576 664.428 119.576C664.428 119.576 681.153 134.9 678.045 147.855C688.1 158.817 694 172.164 694 186.563C694 196.837 691.94 206.576 687.674 215.294C691.772 215.851 695.892 217 695.892 217C695.892 217 689.219 220.682 684.482 220.981Z" fill="url(#paint19_linear)"/>
<path d="M613 176.725C613 176.725 615.52 179.709 620 179.709C624.48 179.709 627 176.725 627 176.725" stroke="#757575" stroke-width="4" stroke-linecap="round"/>
<path d="M627 176.725C627 176.725 629.52 179.709 634 179.709C638.48 179.709 641 176.725 641 176.725" stroke="#757575" stroke-width="4" stroke-linecap="round"/>
<path d="M575.238 149.968C575.238 149.968 577.829 146.984 582.435 146.984C587.041 146.984 589.632 149.968 589.632 149.968" stroke="black" stroke-opacity="0.1" stroke-width="8" stroke-linecap="round"/>
<path d="M652 149.968C652 149.968 654.591 146.984 659.197 146.984C663.803 146.984 666.394 149.968 666.394 149.968" stroke="black" stroke-opacity="0.1" stroke-width="8" stroke-linecap="round"/>
<circle cx="587" cy="166.813" r="10" fill="black" fill-opacity="0.87"/>
<path d="M574.5 165C574.5 165 576.5 161.5 580.5 160C584.5 158.5 587 159 587 159" stroke="#212121" stroke-width="4" stroke-linecap="round"/>
<circle r="10" transform="matrix(-1 0 0 1 659 164.813)" fill="black" fill-opacity="0.87"/>
<path d="M671.5 163C671.5 163 669.5 159.5 665.5 158C661.5 156.5 659 157 659 157" stroke="#212121" stroke-width="4" stroke-linecap="round"/>
<path fill-rule="evenodd" clip-rule="evenodd" d="M1404.48 218.981L1404.38 219.137C1407.89 219.73 1411 220.598 1411 220.598C1411 220.598 1406.3 223.189 1402 224.201C1404.05 224.073 1405.52 224.063 1405.52 224.063C1405.52 224.063 1399.65 229.902 1395.08 231.207C1394.8 231.287 1394.51 231.363 1394.21 231.434C1395.1 231.497 1395.65 231.551 1395.65 231.551C1395.65 231.551 1390.84 235.418 1386.51 236.999C1372.2 246.456 1352.05 252.125 1325.5 252.125C1288.8 252.125 1264.33 241.292 1250.6 224.593C1245.85 224.435 1238.89 220.598 1238.89 220.598C1238.89 220.598 1242.55 219.579 1246.39 218.996C1246.26 218.999 1246.13 219 1246 219C1241.25 219 1234 215 1234 215C1234 215 1238.85 213.646 1243.26 213.166C1239.04 204.48 1237 194.787 1237 184.563C1237 170.091 1242.96 156.682 1253.11 145.689C1251.22 133.781 1260.51 118.758 1260.51 118.758C1260.51 118.758 1275.71 118.339 1285.44 124.302C1297.47 119.632 1311.08 117 1325.5 117C1340.74 117 1355.08 119.941 1367.6 125.121C1375.08 119.928 1384.43 117.576 1384.43 117.576C1384.43 117.576 1401.15 132.9 1398.05 145.855C1408.1 156.817 1414 170.164 1414 184.563C1414 194.837 1411.94 204.576 1407.67 213.294C1411.77 213.851 1415.89 215 1415.89 215C1415.89 215 1409.22 218.682 1404.48 218.981Z" fill="url(#paint20_linear)"/>
<path d="M1333 174.725C1333 174.725 1335.52 177.709 1340 177.709C1344.48 177.709 1347 174.725 1347 174.725" stroke="#757575" stroke-width="4" stroke-linecap="round"/>
<path d="M1347 174.725C1347 174.725 1349.52 177.709 1354 177.709C1358.48 177.709 1361 174.725 1361 174.725" stroke="#757575" stroke-width="4" stroke-linecap="round"/>
<path d="M1295.24 147.968C1295.24 147.968 1297.83 144.984 1302.43 144.984C1307.04 144.984 1309.63 147.968 1309.63 147.968" stroke="black" stroke-opacity="0.1" stroke-width="8" stroke-linecap="round"/>
<path d="M1372 147.968C1372 147.968 1374.59 144.984 1379.2 144.984C1383.8 144.984 1386.39 147.968 1386.39 147.968" stroke="black" stroke-opacity="0.1" stroke-width="8" stroke-linecap="round"/>
<circle cx="1307" cy="164.813" r="10" fill="black" fill-opacity="0.87"/>
<path d="M1294.5 163C1294.5 163 1296.5 159.5 1300.5 158C1304.5 156.5 1307 157 1307 157" stroke="#212121" stroke-width="4" stroke-linecap="round"/>
<circle r="10" transform="matrix(-1 0 0 1 1379 162.813)" fill="black" fill-opacity="0.87"/>
<path d="M1391.5 161C1391.5 161 1389.5 157.5 1385.5 156C1381.5 154.5 1379 155 1379 155" stroke="#212121" stroke-width="4" stroke-linecap="round"/>
<path fill-rule="evenodd" clip-rule="evenodd" d="M1044.48 220.981L1044.38 221.137C1047.89 221.73 1051 222.598 1051 222.598C1051 222.598 1046.3 225.189 1042 226.201C1044.05 226.073 1045.52 226.063 1045.52 226.063C1045.52 226.063 1039.65 231.902 1035.08 233.207C1034.8 233.287 1034.51 233.363 1034.21 233.434C1035.1 233.497 1035.65 233.551 1035.65 233.551C1035.65 233.551 1030.84 237.418 1026.51 238.999C1012.2 248.456 992.049 254.125 965.5 254.125C928.799 254.125 904.329 243.292 890.596 226.593C885.846 226.435 878.892 222.598 878.892 222.598C878.892 222.598 882.545 221.579 886.393 220.996C886.26 220.999 886.129 221 886 221C881.249 221 874 217 874 217C874 217 878.853 215.646 883.264 215.166C879.04 206.48 877 196.787 877 186.563C877 172.091 882.96 158.682 893.108 147.689C891.224 135.781 900.507 120.758 900.507 120.758C900.507 120.758 915.712 120.339 925.44 126.302C937.468 121.632 951.081 119 965.5 119C980.741 119 995.082 121.941 1007.6 127.121C1015.08 121.928 1024.43 119.576 1024.43 119.576C1024.43 119.576 1041.15 134.9 1038.05 147.855C1048.1 158.817 1054 172.164 1054 186.563C1054 196.837 1051.94 206.576 1047.67 215.294C1051.77 215.851 1055.89 217 1055.89 217C1055.89 217 1049.22 220.682 1044.48 220.981Z" fill="url(#paint21_linear)"/>
<path d="M973 176.725C973 176.725 975.52 179.709 980 179.709C984.48 179.709 987 176.725 987 176.725" stroke="#757575" stroke-width="4" stroke-linecap="round"/>
<path d="M987 176.725C987 176.725 989.52 179.709 994 179.709C998.48 179.709 1001 176.725 1001 176.725" stroke="#757575" stroke-width="4" stroke-linecap="round"/>
<path d="M935.238 149.968C935.238 149.968 937.829 146.984 942.435 146.984C947.041 146.984 949.632 149.968 949.632 149.968" stroke="black" stroke-opacity="0.1" stroke-width="8" stroke-linecap="round"/>
<path d="M1012 149.968C1012 149.968 1014.59 146.984 1019.2 146.984C1023.8 146.984 1026.39 149.968 1026.39 149.968" stroke="black" stroke-opacity="0.1" stroke-width="8" stroke-linecap="round"/>
<circle cx="947" cy="166.813" r="10" fill="black" fill-opacity="0.87"/>
<path d="M934.5 165C934.5 165 936.5 161.5 940.5 160C944.5 158.5 947 159 947 159" stroke="#212121" stroke-width="4" stroke-linecap="round"/>
<circle r="10" transform="matrix(-1 0 0 1 1019 164.813)" fill="black" fill-opacity="0.87"/>
<path d="M1031.5 163C1031.5 163 1029.5 159.5 1025.5 158C1021.5 156.5 1019 157 1019 157" stroke="#212121" stroke-width="4" stroke-linecap="round"/>
<path d="M1356.97 356.496C1377.65 341.276 1356.97 314.56 1356.97 290.743C1356.97 266.925 1335.07 261.915 1327.4 263.305C1319.73 264.695 1308.03 271.555 1308.03 290.537C1308.03 309.52 1331.23 375.452 1356.97 356.496Z" fill="url(#paint22_linear)"/>
<path d="M1145.93 343.261C1160.11 351.448 1212.67 333.663 1224.58 313.037C1236.48 292.41 1239.72 277.901 1225.82 269.878C1211.93 261.854 1180.22 253.985 1159.22 290.356C1138.22 326.727 1131.75 335.075 1145.93 343.261Z" fill="url(#paint23_linear)"/>
</g>
<defs>
<linearGradient id="paint0_linear" x1="1208.61" y1="351.072" x2="1198.15" y2="253.549" gradientUnits="userSpaceOnUse">
<stop offset="0.421875" stop-color="#D7D7D7"/>
<stop offset="0.9999" stop-color="#E2E2E2"/>
</linearGradient>
<linearGradient id="paint1_linear" x1="1380.86" y1="324.093" x2="1321.09" y2="254.905" gradientUnits="userSpaceOnUse">
<stop offset="0.421875" stop-color="#D7D7D7"/>
<stop offset="0.9999" stop-color="#E2E2E2"/>
</linearGradient>
<linearGradient id="paint2_linear" x1="142.613" y1="351.072" x2="132.15" y2="253.549" gradientUnits="userSpaceOnUse">
<stop offset="0.421875" stop-color="#D7D7D7"/>
<stop offset="0.9999" stop-color="#E2E2E2"/>
</linearGradient>
<linearGradient id="paint3_linear" x1="456.537" y1="350.972" x2="496.237" y2="261.283" gradientUnits="userSpaceOnUse">
<stop offset="0.421875" stop-color="#D7D7D7"/>
<stop offset="0.9999" stop-color="#E2E2E2"/>
</linearGradient>
<linearGradient id="paint4_linear" x1="863.613" y1="351.072" x2="853.15" y2="253.549" gradientUnits="userSpaceOnUse">
<stop offset="0.421875" stop-color="#D7D7D7"/>
<stop offset="0.9999" stop-color="#E2E2E2"/>
</linearGradient>
<linearGradient id="paint5_linear" x1="265.804" y1="351.71" x2="255.138" y2="260.903" gradientUnits="userSpaceOnUse">
<stop offset="0.421875" stop-color="#D7D7D7"/>
<stop offset="0.9999" stop-color="#E2E2E2"/>
</linearGradient>
<linearGradient id="paint6_linear" x1="626.804" y1="351.71" x2="616.138" y2="260.903" gradientUnits="userSpaceOnUse">
<stop offset="0.421875" stop-color="#D7D7D7"/>
<stop offset="0.9999" stop-color="#E2E2E2"/>
</linearGradient>
<linearGradient id="paint7_linear" x1="986.804" y1="351.71" x2="976.138" y2="260.903" gradientUnits="userSpaceOnUse">
<stop offset="0.421875" stop-color="#D7D7D7"/>
<stop offset="0.9999" stop-color="#E2E2E2"/>
</linearGradient>
<linearGradient id="paint8_linear" x1="290.544" y1="260.893" x2="70.9738" y2="249.504" gradientUnits="userSpaceOnUse">
<stop offset="0.421875" stop-color="white"/>
<stop offset="0.9999" stop-color="#F2F2F2"/>
<stop offset="1" stop-color="white" stop-opacity="0"/>
</linearGradient>
<linearGradient id="paint9_linear" x1="651.544" y1="260.893" x2="431.974" y2="249.504" gradientUnits="userSpaceOnUse">
<stop offset="0.421875" stop-color="white"/>
<stop offset="0.9999" stop-color="#F2F2F2"/>
<stop offset="1" stop-color="white" stop-opacity="0"/>
</linearGradient>
<linearGradient id="paint10_linear" x1="1371.54" y1="260.893" x2="1151.97" y2="249.504" gradientUnits="userSpaceOnUse">
<stop offset="0.421875" stop-color="white"/>
<stop offset="0.9999" stop-color="#F2F2F2"/>
<stop offset="1" stop-color="white" stop-opacity="0"/>
</linearGradient>
<linearGradient id="paint11_linear" x1="1011.54" y1="260.893" x2="791.974" y2="249.504" gradientUnits="userSpaceOnUse">
<stop offset="0.421875" stop-color="white"/>
<stop offset="0.9999" stop-color="#F2F2F2"/>
<stop offset="1" stop-color="white" stop-opacity="0"/>
</linearGradient>
<linearGradient id="paint12_linear" x1="234.157" y1="358.321" x2="219.843" y2="261.798" gradientUnits="userSpaceOnUse">
<stop offset="0.421875" stop-color="white"/>
<stop offset="0.9999" stop-color="#E2E2E2"/>
</linearGradient>
<linearGradient id="paint13_linear" x1="659.895" y1="332.734" x2="593.898" y2="260.86" gradientUnits="userSpaceOnUse">
<stop offset="0.421875" stop-color="white"/>
<stop offset="0.9999" stop-color="#E2E2E2"/>
</linearGradient>
<linearGradient id="paint14_linear" x1="980.666" y1="360.309" x2="941.859" y2="270.78" gradientUnits="userSpaceOnUse">
<stop offset="0.421875" stop-color="white"/>
<stop offset="0.9999" stop-color="#E2E2E2"/>
</linearGradient>
<linearGradient id="paint15_linear" x1="127.613" y1="351.072" x2="117.15" y2="253.549" gradientUnits="userSpaceOnUse">
<stop offset="0.421875" stop-color="white"/>
<stop offset="0.9999" stop-color="#E2E2E2"/>
</linearGradient>
<linearGradient id="paint16_linear" x1="488.613" y1="351.072" x2="478.15" y2="253.549" gradientUnits="userSpaceOnUse">
<stop offset="0.421875" stop-color="white"/>
<stop offset="0.9999" stop-color="#E2E2E2"/>
</linearGradient>
<linearGradient id="paint17_linear" x1="848.613" y1="351.072" x2="838.15" y2="253.549" gradientUnits="userSpaceOnUse">
<stop offset="0.421875" stop-color="white"/>
<stop offset="0.9999" stop-color="#E2E2E2"/>
</linearGradient>
<linearGradient id="paint18_linear" x1="265.167" y1="174" x2="191.777" y2="260.858" gradientUnits="userSpaceOnUse">
<stop offset="0.515709" stop-color="white"/>
<stop offset="0.9999" stop-color="#E6E6E6"/>
</linearGradient>
<linearGradient id="paint19_linear" x1="626.167" y1="176" x2="552.777" y2="262.858" gradientUnits="userSpaceOnUse">
<stop offset="0.515709" stop-color="white"/>
<stop offset="0.9999" stop-color="#E6E6E6"/>
</linearGradient>
<linearGradient id="paint20_linear" x1="1346.17" y1="174" x2="1272.78" y2="260.858" gradientUnits="userSpaceOnUse">
<stop offset="0.515709" stop-color="white"/>
<stop offset="0.9999" stop-color="#E6E6E6"/>
</linearGradient>
<linearGradient id="paint21_linear" x1="986.167" y1="176" x2="912.777" y2="262.858" gradientUnits="userSpaceOnUse">
<stop offset="0.515709" stop-color="white"/>
<stop offset="0.9999" stop-color="#E6E6E6"/>
</linearGradient>
<linearGradient id="paint22_linear" x1="1341.16" y1="358.321" x2="1326.84" y2="261.798" gradientUnits="userSpaceOnUse">
<stop offset="0.421875" stop-color="white"/>
<stop offset="0.9999" stop-color="#E2E2E2"/>
</linearGradient>
<linearGradient id="paint23_linear" x1="1176.54" y1="350.972" x2="1216.24" y2="261.283" gradientUnits="userSpaceOnUse">
<stop offset="0.421875" stop-color="white"/>
<stop offset="0.9999" stop-color="#E2E2E2"/>
</linearGradient>
<clipPath id="clip0">
<rect width="1440" height="360" fill="white"/>
</clipPath>
</defs>
</svg>
