<svg width="720" height="360" viewBox="0 0 720 360" fill="none" xmlns="http://www.w3.org/2000/svg">
<g clip-path="url(#clip0)">
<path fill-rule="evenodd" clip-rule="evenodd" d="M55.7181 254.425C53.9267 252.657 51.5091 250.449 49.345 249.071C45.2703 246.476 37.0743 246 37.0743 246C37.0743 246 38.2102 247.258 39.8322 248.852C24.384 246.459 8 250.126 8 250.126C8 250.126 11.571 254.501 17.2473 260.124C15.7524 260.209 14.7499 260.334 14.7499 260.334C14.7499 260.334 19.3095 263.826 23.3988 265.896C28.2871 270.227 33.9954 274.676 40 278.126C57.2186 288.018 88.5 274.126 88.5 274.126C88.5 274.126 72.4014 264.059 55.7181 254.425Z" fill="white"/>
<path fill-rule="evenodd" clip-rule="evenodd" d="M417.718 254.425C415.927 252.657 413.509 250.449 411.345 249.071C407.27 246.476 399.074 246 399.074 246C399.074 246 400.21 247.258 401.832 248.852C386.384 246.459 370 250.126 370 250.126C370 250.126 373.571 254.501 379.247 260.124C377.752 260.209 376.75 260.334 376.75 260.334C376.75 260.334 381.309 263.826 385.399 265.896C390.287 270.227 395.995 274.676 402 278.126C419.219 288.018 450.5 274.126 450.5 274.126C450.5 274.126 434.401 264.059 417.718 254.425Z" fill="white"/>
<path d="M300.511 350.435C311.049 327.028 279.927 313.898 268.236 293.147C256.545 272.397 235 278.785 229 283.76C223 288.736 216.177 300.453 225.495 316.992C234.812 333.53 287.387 379.587 300.511 350.435Z" fill="url(#paint0_linear)"/>
<path d="M662.511 350.435C673.049 327.028 641.927 313.898 630.236 293.147C618.545 272.397 597 278.785 591 283.76C585 288.736 578.177 300.453 587.495 316.992C596.812 333.53 649.387 379.587 662.511 350.435Z" fill="url(#paint1_linear)"/>
<path d="M65 275C65 230.51 105.511 203 168 203C230.489 203 264 224.806 264 275C264 325.194 201.551 360 144 360C86.4493 360 65 319.49 65 275Z" fill="url(#paint2_linear)"/>
<path d="M427 275C427 230.51 467.511 203 530 203C592.489 203 626 224.806 626 275C626 325.194 563.551 360 506 360C448.449 360 427 319.49 427 275Z" fill="url(#paint3_linear)"/>
<path d="M252.511 350.435C263.049 327.028 231.927 313.898 220.236 293.147C208.545 272.397 187 278.785 181 283.76C175 288.736 168.177 300.453 177.495 316.992C186.812 333.53 239.387 379.587 252.511 350.435Z" fill="url(#paint4_linear)"/>
<path d="M614.511 350.435C625.049 327.028 593.927 313.898 582.236 293.147C570.545 272.397 549 278.785 543 283.76C537 288.736 530.177 300.453 539.495 316.992C548.812 333.53 601.387 379.587 614.511 350.435Z" fill="url(#paint5_linear)"/>
<path d="M175 345C175 328.627 133.317 292 109.5 292C85.6827 292 71.5 296.454 71.5 312.5C71.5 328.546 80.5396 359.941 122.537 359.941C164.535 359.941 175 361.373 175 345Z" fill="url(#paint6_linear)"/>
<path d="M537 345C537 328.627 495.317 292 471.5 292C447.683 292 433.5 296.454 433.5 312.5C433.5 328.546 442.54 359.941 484.537 359.941C526.535 359.941 537 361.373 537 345Z" fill="url(#paint7_linear)"/>
<path fill-rule="evenodd" clip-rule="evenodd" d="M316 208.563C316 245.877 288.826 276.125 227.5 276.125C190.799 276.125 166.329 265.292 152.596 248.593C147.846 248.435 140.892 244.598 140.892 244.598C140.892 244.598 144.545 243.579 148.393 242.996C148.26 242.999 148.129 243 148 243C143.249 243 136 239 136 239C136 239 140.853 237.646 145.264 237.166C141.04 228.48 139 218.787 139 208.563C139 194.091 144.96 180.682 155.108 169.689C153.224 157.781 162.507 142.758 162.507 142.758C162.507 142.758 177.712 142.339 187.44 148.302C199.468 143.632 213.081 141 227.5 141C242.741 141 257.082 143.941 269.603 149.121C277.081 143.928 286.428 141.576 286.428 141.576C286.428 141.576 303.153 156.9 300.045 169.855C310.1 180.817 316 194.164 316 208.563Z" fill="url(#paint8_linear)"/>
<path fill-rule="evenodd" clip-rule="evenodd" d="M678 208.563C678 245.877 650.826 276.125 589.5 276.125C552.799 276.125 528.329 265.292 514.596 248.593C509.846 248.435 502.892 244.598 502.892 244.598C502.892 244.598 506.545 243.579 510.393 242.996C510.26 242.999 510.129 243 510 243C505.249 243 498 239 498 239C498 239 502.853 237.646 507.264 237.166C503.04 228.48 501 218.787 501 208.563C501 194.091 506.96 180.682 517.108 169.689C515.224 157.781 524.507 142.758 524.507 142.758C524.507 142.758 539.712 142.339 549.44 148.302C561.468 143.632 575.081 141 589.5 141C604.741 141 619.082 143.941 631.603 149.121C639.081 143.928 648.428 141.576 648.428 141.576C648.428 141.576 665.153 156.9 662.045 169.855C672.1 180.817 678 194.164 678 208.563Z" fill="url(#paint9_linear)"/>
<path d="M301 248.598C305.751 248.598 313 244.598 313 244.598C313 244.598 305.831 242.598 301 242.598C296.169 242.598 289 246.598 289 246.598C289 246.598 296.249 248.598 301 248.598Z" fill="white"/>
<path d="M663 248.598C667.751 248.598 675 244.598 675 244.598C675 244.598 667.831 242.598 663 242.598C658.169 242.598 651 246.598 651 246.598C651 246.598 658.249 248.598 663 248.598Z" fill="white"/>
<path d="M305.892 243C310.643 243 317.892 239 317.892 239C317.892 239 310.723 237 305.892 237C301.062 237 293.892 241 293.892 241C293.892 241 301.141 243 305.892 243Z" fill="white"/>
<path d="M667.892 243C672.643 243 679.892 239 679.892 239C679.892 239 672.723 237 667.892 237C663.062 237 655.892 241 655.892 241C655.892 241 663.141 243 667.892 243Z" fill="white"/>
<path d="M286.515 261.554C291.196 260.737 297.65 255.551 297.65 255.551C297.65 255.551 290.243 254.813 285.484 255.643C280.726 256.473 274.35 261.645 274.35 261.645C274.35 261.645 281.835 262.37 286.515 261.554Z" fill="white"/>
<path d="M648.515 261.554C653.196 260.737 659.65 255.551 659.65 255.551C659.65 255.551 652.243 254.813 647.484 255.643C642.726 256.473 636.35 261.645 636.35 261.645C636.35 261.645 643.835 262.37 648.515 261.554Z" fill="white"/>
<path d="M297.085 255.207C301.653 253.902 307.523 248.063 307.523 248.063C307.523 248.063 300.08 248.11 295.436 249.438C290.791 250.766 284.997 256.582 284.997 256.582C284.997 256.582 292.517 256.513 297.085 255.207Z" fill="white"/>
<path d="M659.085 255.207C663.653 253.902 669.523 248.063 669.523 248.063C669.523 248.063 662.08 248.11 657.436 249.438C652.791 250.766 646.997 256.582 646.997 256.582C646.997 256.582 654.517 256.513 659.085 255.207Z" fill="white"/>
<path d="M235 198.725C235 198.725 237.52 201.709 242 201.709C246.48 201.709 249 198.725 249 198.725" stroke="#757575" stroke-width="4" stroke-linecap="round"/>
<path d="M249 198.725C249 198.725 251.52 201.709 256 201.709C260.48 201.709 263 198.725 263 198.725" stroke="#757575" stroke-width="4" stroke-linecap="round"/>
<path d="M597 198.725C597 198.725 599.52 201.709 604 201.709C608.48 201.709 611 198.725 611 198.725" stroke="#757575" stroke-width="4" stroke-linecap="round"/>
<path d="M611 198.725C611 198.725 613.52 201.709 618 201.709C622.48 201.709 625 198.725 625 198.725" stroke="#757575" stroke-width="4" stroke-linecap="round"/>
<path d="M197.238 171.968C197.238 171.968 199.829 168.984 204.435 168.984C209.041 168.984 211.632 171.968 211.632 171.968" stroke="black" stroke-opacity="0.1" stroke-width="8" stroke-linecap="round"/>
<path d="M559.238 171.968C559.238 171.968 561.829 168.984 566.435 168.984C571.041 168.984 573.632 171.968 573.632 171.968" stroke="black" stroke-opacity="0.1" stroke-width="8" stroke-linecap="round"/>
<path d="M274 171.968C274 171.968 276.591 168.984 281.197 168.984C285.803 168.984 288.394 171.968 288.394 171.968" stroke="black" stroke-opacity="0.1" stroke-width="8" stroke-linecap="round"/>
<path d="M636 171.968C636 171.968 638.591 168.984 643.197 168.984C647.803 168.984 650.394 171.968 650.394 171.968" stroke="black" stroke-opacity="0.1" stroke-width="8" stroke-linecap="round"/>
<circle cx="209" cy="188.813" r="10" fill="black" fill-opacity="0.87"/>
<path d="M196.5 187C196.5 187 198.5 183.5 202.5 182C206.5 180.5 209 181 209 181" stroke="#212121" stroke-width="4" stroke-linecap="round"/>
<circle cx="571" cy="188.813" r="10" fill="black" fill-opacity="0.87"/>
<path d="M558.5 187C558.5 187 560.5 183.5 564.5 182C568.5 180.5 571 181 571 181" stroke="#212121" stroke-width="4" stroke-linecap="round"/>
<circle r="10" transform="matrix(-1 0 0 1 281 186.813)" fill="black" fill-opacity="0.87"/>
<path d="M293.5 185C293.5 185 291.5 181.5 287.5 180C283.5 178.5 281 179 281 179" stroke="#212121" stroke-width="4" stroke-linecap="round"/>
<circle r="10" transform="matrix(-1 0 0 1 643 186.813)" fill="black" fill-opacity="0.87"/>
<path d="M655.5 185C655.5 185 653.5 181.5 649.5 180C645.5 178.5 643 179 643 179" stroke="#212121" stroke-width="4" stroke-linecap="round"/>
</g>
<defs>
<linearGradient id="paint0_linear" x1="287.626" y1="359.789" x2="227.777" y2="282.72" gradientUnits="userSpaceOnUse">
<stop offset="0.421875" stop-color="white"/>
<stop offset="0.9999" stop-color="#E2E2E2"/>
</linearGradient>
<linearGradient id="paint1_linear" x1="649.626" y1="359.789" x2="589.777" y2="282.72" gradientUnits="userSpaceOnUse">
<stop offset="0.421875" stop-color="white"/>
<stop offset="0.9999" stop-color="#E2E2E2"/>
</linearGradient>
<linearGradient id="paint2_linear" x1="273.544" y1="288.893" x2="53.9738" y2="277.504" gradientUnits="userSpaceOnUse">
<stop offset="0.421875" stop-color="white"/>
<stop offset="0.9999" stop-color="#F2F2F2"/>
<stop offset="1" stop-color="white" stop-opacity="0"/>
</linearGradient>
<linearGradient id="paint3_linear" x1="635.544" y1="288.893" x2="415.974" y2="277.504" gradientUnits="userSpaceOnUse">
<stop offset="0.421875" stop-color="white"/>
<stop offset="0.9999" stop-color="#F2F2F2"/>
<stop offset="1" stop-color="white" stop-opacity="0"/>
</linearGradient>
<linearGradient id="paint4_linear" x1="239.626" y1="359.789" x2="179.777" y2="282.72" gradientUnits="userSpaceOnUse">
<stop offset="0.421875" stop-color="white"/>
<stop offset="0.9999" stop-color="#E2E2E2"/>
</linearGradient>
<linearGradient id="paint5_linear" x1="601.626" y1="359.789" x2="541.777" y2="282.72" gradientUnits="userSpaceOnUse">
<stop offset="0.421875" stop-color="white"/>
<stop offset="0.9999" stop-color="#E2E2E2"/>
</linearGradient>
<linearGradient id="paint6_linear" x1="166.372" y1="314.635" x2="68.8496" y2="325.099" gradientUnits="userSpaceOnUse">
<stop offset="0.421875" stop-color="white"/>
<stop offset="0.9999" stop-color="#E2E2E2"/>
</linearGradient>
<linearGradient id="paint7_linear" x1="528.372" y1="314.635" x2="430.85" y2="325.099" gradientUnits="userSpaceOnUse">
<stop offset="0.421875" stop-color="white"/>
<stop offset="0.9999" stop-color="#E2E2E2"/>
</linearGradient>
<linearGradient id="paint8_linear" x1="247" y1="198" x2="173.486" y2="284.099" gradientUnits="userSpaceOnUse">
<stop offset="0.515709" stop-color="white"/>
<stop offset="0.9999" stop-color="#E6E6E6"/>
</linearGradient>
<linearGradient id="paint9_linear" x1="609" y1="198" x2="535.486" y2="284.099" gradientUnits="userSpaceOnUse">
<stop offset="0.515709" stop-color="white"/>
<stop offset="0.9999" stop-color="#E6E6E6"/>
</linearGradient>
<clipPath id="clip0">
<rect width="720" height="360" fill="white"/>
</clipPath>
</defs>
</svg>
